<svg xmlns="http://www.w3.org/2000/svg" viewBox="0 0 103.04 129.37"><defs><style>.cls-1{fill:#1d1d1b;}.cls-2{fill:#743515;}.cls-3{fill:#622d0e;}.cls-4{fill:#e4e4e4;}.cls-4,.cls-5{stroke:#000;stroke-miterlimit:10;stroke-width:3px;}.cls-5{fill:none;}</style></defs><g id="Layer_2" data-name="Layer 2"><g id="Layer_1-2" data-name="Layer 1"><path class="cls-1" d="M97.93,46.53c0,27.94-18.69,58.56-44.63,58.56S6.75,75.16,6.75,47.22,27.36,3.9,53.3,3.9,97.93,18.59,97.93,46.53Z"/><path class="cls-2" d="M51,44.07c-.48,0,.47,0,0,0l.13,85.24c.47,0,.94.06,1.42.06,22.85,0,39.73-30.08,39.73-52.93S73.88,44.07,51,44.07Z"/><path class="cls-3" d="M12.84,76.44c0,22.38,16.19,51.67,38.32,52.87L51,44.07C28.9,44.75,12.84,54.06,12.84,76.44Z"/><path d="M51.16,102.69h0v26.66l1.42,0c22.85,0,37-27.06,37-35.93S74,102.69,51.16,102.69Z"/><path d="M15.31,92.6c0,8.68,13.72,36.28,35.85,36.75V102.69C29,103,15.31,83.91,15.31,92.6Z"/><rect class="cls-2" x="41.03" y="107.39" width="22.58" height="16.17" rx="6.86"/><rect class="cls-4" x="17.41" y="62.69" width="31.19" height="24" rx="12"/><line class="cls-5" x1="48.6" y1="74.69" x2="57.09" y2="74.69"/><rect class="cls-4" x="57.41" y="62.69" width="31.19" height="24" rx="12"/><path class="cls-1" d="M17.13,70.18a4.5,4.5,0,0,1-4.2,4.51,4.61,4.61,0,0,1-4.37-4.46c0-2.15,1.94-3.33,4.37-3.33S17.13,68,17.13,70.18Z"/><path class="cls-1" d="M15.36,66.28a4.5,4.5,0,0,1-4.2,4.51,4.61,4.61,0,0,1-4.37-4.45c0-2.15,1.94-3.34,4.37-3.34S15.36,64.13,15.36,66.28Z"/><path class="cls-1" d="M17.13,63.94a4.5,4.5,0,0,1-4.2,4.51A4.62,4.62,0,0,1,8.56,64c0-2.15,1.94-3.33,4.37-3.33S17.13,61.79,17.13,63.94Z"/><path class="cls-1" d="M12.84,60a4.49,4.49,0,0,1-4.19,4.51,4.61,4.61,0,0,1-4.37-4.46c0-2.15,1.94-3.33,4.37-3.33S12.84,57.89,12.84,60Z"/><path class="cls-1" d="M19.82,56a4.49,4.49,0,0,1-4.19,4.51,4.61,4.61,0,0,1-4.37-4.46c0-2.15,1.93-3.34,4.37-3.34S19.82,53.85,19.82,56Z"/><path class="cls-1" d="M11.07,56.15a4.49,4.49,0,0,1-4.19,4.51A4.62,4.62,0,0,1,2.51,56.2c0-2.15,1.94-3.34,4.37-3.34S11.07,54,11.07,56.15Z"/><path class="cls-1" d="M11,42.11a4.49,4.49,0,0,1-4.19,4.51,4.61,4.61,0,0,1-4.37-4.46c0-2.15,1.93-3.33,4.37-3.33S11,40,11,42.11Z"/><path class="cls-1" d="M11.07,49.9a4.49,4.49,0,0,1-4.19,4.51A4.61,4.61,0,0,1,2.51,50c0-2.16,1.94-3.34,4.37-3.34S11.07,47.75,11.07,49.9Z"/><path class="cls-1" d="M8.56,45.45A4.49,4.49,0,0,1,4.37,50,4.62,4.62,0,0,1,0,45.5c0-2.15,1.94-3.34,4.37-3.34S8.56,43.29,8.56,45.45Z"/><path class="cls-1" d="M9.26,38.21a4.49,4.49,0,0,1-4.19,4.51A4.6,4.6,0,0,1,.7,38.27c0-2.16,1.93-3.34,4.37-3.34S9.26,36.06,9.26,38.21Z"/><path class="cls-1" d="M11.07,33a4.49,4.49,0,0,1-4.19,4.51,4.62,4.62,0,0,1-4.37-4.46c0-2.15,1.94-3.34,4.37-3.34S11.07,30.87,11.07,33Z"/><path class="cls-1" d="M13.54,27.82a4.49,4.49,0,0,1-4.19,4.51A4.6,4.6,0,0,1,5,27.87c0-2.15,1.93-3.33,4.37-3.33S13.54,25.67,13.54,27.82Z"/><path class="cls-1" d="M17.13,22.2a4.5,4.5,0,0,1-4.2,4.51,4.62,4.62,0,0,1-4.37-4.46c0-2.15,1.94-3.34,4.37-3.34S17.13,20.05,17.13,22.2Z"/><path class="cls-1" d="M21.41,17.43a4.5,4.5,0,0,1-4.19,4.51,4.61,4.61,0,0,1-4.38-4.46c0-2.15,1.94-3.33,4.38-3.33S21.41,15.28,21.41,17.43Z"/><path class="cls-1" d="M26.8,12.58a4.49,4.49,0,0,1-4.19,4.51,4.61,4.61,0,0,1-4.37-4.46c0-2.15,1.93-3.34,4.37-3.34S26.8,10.42,26.8,12.58Z"/><path class="cls-1" d="M32.39,8.68a4.49,4.49,0,0,1-4.19,4.51,4.62,4.62,0,0,1-4.37-4.46c0-2.15,1.94-3.33,4.37-3.33S32.39,6.53,32.39,8.68Z"/><path class="cls-1" d="M37.48,6.8a4.49,4.49,0,0,1-4.19,4.51,4.62,4.62,0,0,1-4.37-4.46c0-2.15,1.94-3.34,4.37-3.34S37.48,4.65,37.48,6.8Z"/><path class="cls-1" d="M43.86,4.78a4.5,4.5,0,0,1-4.19,4.51,4.61,4.61,0,0,1-4.38-4.45c0-2.16,1.94-3.34,4.38-3.34S43.86,2.63,43.86,4.78Z"/><path class="cls-1" d="M50.36,3.71a4.49,4.49,0,0,1-4.19,4.51A4.6,4.6,0,0,1,41.8,3.77c0-2.15,1.93-3.34,4.37-3.34S50.36,1.56,50.36,3.71Z"/><path class="cls-1" d="M57.45,3.28a4.49,4.49,0,0,1-4.19,4.51,4.61,4.61,0,0,1-4.37-4.45C48.89,1.18,50.83,0,53.26,0S57.45,1.13,57.45,3.28Z"/><path class="cls-1" d="M65,3.71a4.49,4.49,0,0,1-4.19,4.51,4.6,4.6,0,0,1-4.37-4.45c0-2.15,1.93-3.34,4.37-3.34S65,1.56,65,3.71Z"/><path class="cls-1" d="M72.18,4.78A4.5,4.5,0,0,1,68,9.29a4.61,4.61,0,0,1-4.38-4.45c0-2.16,1.94-3.34,4.38-3.34S72.18,2.63,72.18,4.78Z"/><path class="cls-1" d="M78.88,6.61a4.5,4.5,0,0,1-4.2,4.51,4.61,4.61,0,0,1-4.37-4.46c0-2.15,1.94-3.33,4.37-3.33S78.88,4.46,78.88,6.61Z"/><path class="cls-1" d="M84.74,8.68a4.49,4.49,0,0,1-4.19,4.51,4.62,4.62,0,0,1-4.37-4.46c0-2.15,1.94-3.33,4.37-3.33S84.74,6.53,84.74,8.68Z"/><path class="cls-1" d="M89,12.58a4.5,4.5,0,0,1-4.19,4.51,4.62,4.62,0,0,1-4.38-4.46c0-2.15,1.94-3.34,4.38-3.34S89,10.42,89,12.58Z"/><path class="cls-1" d="M95.31,17.43a4.5,4.5,0,0,1-4.19,4.51,4.61,4.61,0,0,1-4.38-4.46c0-2.15,1.94-3.33,4.38-3.33S95.31,15.28,95.31,17.43Z"/><path class="cls-1" d="M98.59,22.2a4.5,4.5,0,0,1-4.19,4.51A4.61,4.61,0,0,1,90,22.25c0-2.15,1.93-3.34,4.37-3.34S98.59,20.05,98.59,22.2Z"/><path class="cls-1" d="M101.15,27.82A4.49,4.49,0,0,1,97,32.33a4.6,4.6,0,0,1-4.37-4.46c0-2.15,1.93-3.33,4.37-3.33S101.15,25.67,101.15,27.82Z"/><path class="cls-1" d="M102.87,33a4.5,4.5,0,0,1-4.19,4.51,4.61,4.61,0,0,1-4.37-4.46c0-2.15,1.93-3.34,4.37-3.34S102.87,30.87,102.87,33Z"/><path class="cls-1" d="M103,38.56a4.49,4.49,0,0,1-4.19,4.51,4.62,4.62,0,0,1-4.37-4.46c0-2.15,1.94-3.34,4.37-3.34S103,36.41,103,38.56Z"/><path class="cls-1" d="M101.87,43.45A4.49,4.49,0,0,1,97.68,48a4.6,4.6,0,0,1-4.37-4.46c0-2.15,1.93-3.33,4.37-3.33S101.87,41.3,101.87,43.45Z"/><path class="cls-1" d="M101.59,48.35a4.5,4.5,0,0,1-4.19,4.51A4.61,4.61,0,0,1,93,48.41c0-2.16,1.94-3.34,4.38-3.34S101.59,46.2,101.59,48.35Z"/><path class="cls-1" d="M100.87,55.15a4.5,4.5,0,0,1-4.19,4.51,4.61,4.61,0,0,1-4.37-4.46c0-2.15,1.93-3.34,4.37-3.34S100.87,53,100.87,55.15Z"/><path class="cls-1" d="M99.39,60a4.49,4.49,0,0,1-4.19,4.51,4.61,4.61,0,0,1-4.37-4.46c0-2.15,1.94-3.33,4.37-3.33S99.39,57.89,99.39,60Z"/><path class="cls-1" d="M73.59,29.85a4.49,4.49,0,0,1-4.19,4.51A4.61,4.61,0,0,1,65,29.9c0-2.15,1.94-3.33,4.37-3.33S73.59,27.7,73.59,29.85Z"/><path class="cls-1" d="M24.1,52.11a4.49,4.49,0,0,1-4.19,4.51,4.61,4.61,0,0,1-4.37-4.46c0-2.15,1.93-3.33,4.37-3.33S24.1,50,24.1,52.11Z"/><path class="cls-1" d="M28.38,49.29a4.49,4.49,0,0,1-4.19,4.51,4.61,4.61,0,0,1-4.37-4.45c0-2.16,1.94-3.34,4.37-3.34S28.38,47.14,28.38,49.29Z"/><path class="cls-1" d="M35.29,46.4a4.49,4.49,0,0,1-4.19,4.51,4.61,4.61,0,0,1-4.37-4.45c0-2.16,1.94-3.34,4.37-3.34S35.29,44.25,35.29,46.4Z"/><path class="cls-1" d="M41.77,45.4a4.5,4.5,0,0,1-4.2,4.51,4.62,4.62,0,0,1-4.37-4.46c0-2.15,1.94-3.34,4.37-3.34S41.77,43.24,41.77,45.4Z"/><path class="cls-1" d="M48.14,43.46A4.5,4.5,0,0,1,44,48a4.61,4.61,0,0,1-4.37-4.46c0-2.15,1.93-3.34,4.37-3.34S48.14,41.3,48.14,43.46Z"/><path class="cls-1" d="M53.34,44.11a4.49,4.49,0,0,1-4.19,4.51,4.6,4.6,0,0,1-4.37-4.45c0-2.16,1.93-3.34,4.37-3.34S53.34,42,53.34,44.11Z"/><path class="cls-1" d="M59.45,43.46A4.49,4.49,0,0,1,55.26,48a4.62,4.62,0,0,1-4.37-4.46c0-2.15,1.94-3.34,4.37-3.34S59.45,41.3,59.45,43.46Z"/><path class="cls-1" d="M64.63,43.11a4.5,4.5,0,0,1-4.2,4.51,4.61,4.61,0,0,1-4.37-4.45c0-2.16,1.94-3.34,4.37-3.34S64.63,41,64.63,43.11Z"/><path class="cls-1" d="M71.32,44.11a4.5,4.5,0,0,1-4.19,4.51,4.61,4.61,0,0,1-4.38-4.45c0-2.16,1.94-3.34,4.38-3.34S71.32,42,71.32,44.11Z"/><path class="cls-1" d="M75.6,44.11a4.5,4.5,0,0,1-4.19,4.51A4.6,4.6,0,0,1,67,44.17C67,42,69,40.83,71.41,40.83S75.6,42,75.6,44.11Z"/><path class="cls-1" d="M80.46,45.4a4.49,4.49,0,0,1-4.19,4.51,4.62,4.62,0,0,1-4.37-4.46c0-2.15,1.94-3.34,4.37-3.34S80.46,43.24,80.46,45.4Z"/><path class="cls-1" d="M84.74,49.29a4.49,4.49,0,0,1-4.19,4.51,4.61,4.61,0,0,1-4.37-4.45c0-2.16,1.94-3.34,4.37-3.34S84.74,47.14,84.74,49.29Z"/><path class="cls-1" d="M88.23,51.11A4.49,4.49,0,0,1,84,55.62a4.62,4.62,0,0,1-4.37-4.46c0-2.15,1.94-3.33,4.37-3.33S88.23,49,88.23,51.11Z"/><path class="cls-1" d="M73.59,29.85a4.49,4.49,0,0,1-4.19,4.51A4.61,4.61,0,0,1,65,29.9c0-2.15,1.94-3.33,4.37-3.33S73.59,27.7,73.59,29.85Z"/><path class="cls-1" d="M91.88,55a4.49,4.49,0,0,1-4.19,4.51,4.61,4.61,0,0,1-4.37-4.46c0-2.15,1.93-3.34,4.37-3.34S91.88,52.85,91.88,55Z"/></g></g></svg>