<svg xmlns="http://www.w3.org/2000/svg" viewBox="0 0 137.12 122.78"><defs><style>.cls-1{fill:#fddbbd;}.cls-2{fill:#fac399;}.cls-3{fill:#fff;}.cls-4{fill:#ea5625;}.cls-5{fill:#f08164;}</style></defs><g id="Layer_2" data-name="Layer 2"><g id="Layer_1-2" data-name="Layer 1"><polygon class="cls-1" points="67.26 122.78 13.43 122.78 13.49 24.98 67.32 24.13 67.26 122.78"/><polygon class="cls-2" points="121.26 122.78 67.42 122.78 67.49 24.98 121.32 24.13 121.26 122.78"/><polygon points="67.27 27.34 67.32 5.98 0 24.42 3.8 38.3 67.27 27.34"/><rect x="105.95" width="11.19" height="22.14"/><polygon points="67.27 27.34 67.32 5.98 137.12 24.42 133.32 38.3 67.27 27.34"/><rect class="cls-3" x="22.8" y="42.83" width="28.66" height="28.66" rx="2.45"/><rect class="cls-3" x="82.8" y="42.83" width="28.66" height="28.66" rx="2.3"/><rect class="cls-4" x="67.43" y="90.82" width="11.12" height="31.96"/><rect class="cls-5" x="56.3" y="90.82" width="11.12" height="31.96"/></g></g></svg>