<svg xmlns="http://www.w3.org/2000/svg" viewBox="0 0 179.04 124.42"><defs><style>.cls-1{fill:#f5d59f;}.cls-2{fill:#facf00;}.cls-3{fill:#f7a508;}.cls-4{fill:#bcbcbb;}.cls-5{fill:#f08aa2;}</style></defs><g id="Layer_2" data-name="Layer 2"><g id="Layer_1-2" data-name="Layer 1"><polygon points="0 124.42 0 124.42 13.14 107.38 21.16 119.58 0 124.42"/><polygon class="cls-1" points="15.5 120.92 9.5 111.79 35.63 78.27 48.1 79.94 62.77 100.92 57.34 111.71 15.5 120.92"/><polygon class="cls-2" points="147.74 29.57 136.73 12.61 35.63 78.27 44.64 96.53 147.74 29.57"/><polygon class="cls-3" points="158.44 46.05 147.43 29.09 44.64 96.53 57.34 111.71 158.44 46.05"/><rect class="cls-4" x="134.84" y="16.09" width="39.87" height="17.15" transform="translate(91.16 -118.57) rotate(57)"/><path class="cls-5" d="M148.9,10.64h28.53a5.67,5.67,0,0,1,5.67,5.67V27.79a0,0,0,0,1,0,0H143.23a0,0,0,0,1,0,0V16.31A5.67,5.67,0,0,1,148.9,10.64Z" transform="translate(90.41 -128.09) rotate(57)"/></g></g></svg>